# xmcd
#
# Track frame offsets:
#	150
#	11895
#	26092
#	39887
#	50317
#	62272
#	74652
#	88317
#	99765
#	111957
#
# Disc length: 1620 seconds
#
# Revision: 2
# Processed by: cddbd v1.5.2PL0 Copyright (c) Steve Scherf et al.
# Submitted via: EasyCDDAExtractor 8.2.3.1
#
DISCID=7d06520a
DTITLE=Jean Shepard - Dear John
DYEAR=1981
DGENRE=Country
TTITLE0=Too Many Rivers
TTITLE1=What Would I Do
TTITLE2=The Palm Of Your Hand
TTITLE3=Leavin' Fever
TTITLE4=All Alone In Austin
TTITLE5=Slippin' Away
TTITLE6=Then He Touched Me
TTITLE7=Seven Lonely Days
TTITLE8=A Dear John Letter
TTITLE9=Second Fiddle To An Old Guitar
EXTD=
EXTT0=Jean Shepard
EXTT1=Jean Shepard
EXTT2=Jean Shepard
EXTT3=Jean Shepard
EXTT4=Jean Shepard
EXTT5=Jean Shepard
EXTT6=Jean Shepard
EXTT7=Jean Shepard
EXTT8=Jean Shepard
EXTT9=Jean Shepard
PLAYORDER=
